/* XPM */
static char * cop_xpm[] = {
"64 64 18 1",
" 	c None",
".	c #25722C",
"+	c #154219",
"@	c #000000",
"#	c #17274D",
"$	c #667176",
"%	c #FFDF46",
"&	c #0D0E0F",
"*	c #3B1B10",
"=	c #FCA3B1",
"-	c #101B36",
";	c #090A0A",
">	c #060707",
",	c #323131",
"'	c #1D315C",
")	c #2A4684",
"!	c #FFFFFF",
"~	c #9A5F16",
"....++...+..........++...+..........++...+..........++...+......",
"++.........+...+++.........+...+++.........+...+++.........+...+",
"+.......++..+..++.......++..+..++.......++..+..++.......++..+..+",
"+++..+.++..++++..++..+.++..++++..++..+.++..++++..++..+.++..++++.",
"++.++..++.+++++..+.++..++.+++++..+.++..++.+++++..+.++..++.+++++.",
"++.++....+++++..++.++....+++++..++.++....+++++..++.++....+++++..",
"++.....++++++..+++.....++++++..+++.....++++++..+++.....++++++..+",
"+...+..+.++++..++...+..+.++++.@@@@@@+..+.++++..++...+..+.++++..+",
"....+.++.++.........+.++.++.@@######@.++.++.........+.++.++.....",
".....+++.............+++...@########$%++.............+++........",
"....+++....++.......+++...@#########$%@....++.......+++....++...",
".+..+.....+......+..+.....@#########$$#&..+......+..+.....+.....",
"+........++....++........+&&&&&@@@@@@@&&&++....++........++....+",
"..............++..........&***@@====@.........++..............++",
"..........................@***@===@=@@..........................",
"......+...............+...@@**@=@=====@...............+.........",
"....++...+..........++...+.@**@@@====@@..+..........++...+......",
"++.........+...+++.........@@@======@@.....+...+++.........+...+",
"+.......++..+..++.......++..@=======@...++..+..++.......++..+..+",
"+++..+.++..++++..++..+.++..+@@@@==@@.+.++..++++..++..+.++..++++.",
"++.++..++.+++++..+.++..++.++@@=@@@&++..++.+++++..+.++..++.+++++.",
"++.++....+++++..++.++....++++@====&++....+++++..++.++....+++++..",
"++.....++++++..+++.....++++++&&&&&&&&..++++++..+++.....++++++..+",
"+...+..+.++++..++...+..+.+++@---####-&.+.++++..++...+..+.++++..+",
"....+.++.++.........+.++.++.@-#######-&+.++.........+.++.++.....",
".....+++.............+++....@-########@+.............+++........",
"....+++....++.......+++....+&-########-@...++.......+++....++...",
".+..+.....+......+..+.....+.&-##########@.+......+..+.....+.....",
"+........++....++........++.&-######&-##@++....++........++....+",
"..............++............&-######&-###@....++..............++",
"............................&-#######&-##@@@@@&.................",
"......+...............+.....&-#######&-###@===@@......+.........",
"....++...+..........++...+..&-########&-##@===@@....++...+......",
"++.........+...+++.........+&--#;;;;-##&-#@=@@@@++.........+...+",
"+.......++..+..++.......++..&@-#;>;;-#@&@@@@@..++.......++..+..+",
"+++..+.++..++++..++..+.++..+&&,,;;;;,,@++..++++..++..+.++..++++.",
"++.++..++.+++++..+.++..++.+++&,,;;;,,,&++.+++++..+.++..++.+++++.",
"++.++....+++++..++.++....++++&');;;)@@...+++++..++.++....+++++..",
"++.....++++++..+++.....++++++&');;)))@@++++++..+++.....++++++..+",
"+...+..+.++++..++...+..+.++++&');&))))@@.++++..++...+..+.++++..+",
"....+.++.++.........+.++.++..&'))))))))@.++.........+.++.++.....",
".....+++.............+++.....&')))'))))@.............+++........",
"....+++....++.......+++....++&')))&')))@@..++.......+++....++...",
".+..+.....+......+..+.....+..&')))&&')))@.+......+..+.....+.....",
"+........++....++........++..&')))&.&'))@++....++........++....+",
"..............++.............@')))&.&'))@.....++..............++",
".............................@')))@.@')@@.......................",
"......+...............+......@'))@..@')@..............+.........",
"....++...+..........++...+...@@@@@@.@@@@@+..........++...+......",
"++.........+...+++.........+.@~~~~@.@~~~~@.+...+++.........+...+",
"+.......++..+..++.......++..+@@@~~@@@@@~~@@.+..++.......++..+..+",
"+++..+.++..++++..++..+.++..++@@@@@@@@@@@@@@++++..++..+.++..++++.",
"++.++..++.+++++..+.++..++.+++++..+.++..++.+++++..+.++..++.+++++.",
"++.++....+++++..++.++....+++++..++.++....+++++..++.++....+++++..",
"++.....++++++..+++.....++++++..+++.....++++++..+++.....++++++..+",
"+...+..+.++++..++...+..+.++++..++...+..+.++++..++...+..+.++++..+",
"....+.++.++.........+.++.++.........+.++.++.........+.++.++.....",
".....+++.............+++.............+++.............+++........",
"....+++....++.......+++....++.......+++....++.......+++....++...",
".+..+.....+......+..+.....+......+..+.....+......+..+.....+.....",
"+........++....++........++....++........++....++........++....+",
"..............++..............++..............++..............++",
"................................................................",
"......+...............+...............+...............+........."};
