/* XPM */
static char * couple01_xpm[] = {
"64 64 175 2",
"  	c None",
". 	c #25722C",
"+ 	c #154219",
"@ 	c #000101",
"# 	c #010101",
"$ 	c #020202",
"% 	c #000000",
"& 	c #18421C",
"* 	c #000201",
"= 	c #FF7E00",
"- 	c #FE7E00",
"; 	c #FF7F00",
"> 	c #020101",
", 	c #010000",
"' 	c #FF8000",
") 	c #FE7E01",
"! 	c #FC7E03",
"~ 	c #FC7F01",
"{ 	c #FB8003",
"] 	c #FE7F00",
"^ 	c #030001",
"/ 	c #FEF202",
"( 	c #000001",
"_ 	c #FE8001",
": 	c #FD8102",
"< 	c #FD7F02",
"[ 	c #FDF102",
"} 	c #020001",
"| 	c #FEF000",
"1 	c #020000",
"2 	c #FD8002",
"3 	c #050101",
"4 	c #FD7F00",
"5 	c #000100",
"6 	c #FEF102",
"7 	c #FB7F03",
"8 	c #020200",
"9 	c #FEA4B3",
"0 	c #010201",
"a 	c #FEF201",
"b 	c #010100",
"c 	c #FC7F00",
"d 	c #FEA4B6",
"e 	c #FEA3B1",
"f 	c #FDF100",
"g 	c #FEF105",
"h 	c #FDA3B2",
"i 	c #FDA2B1",
"j 	c #FCA4B3",
"k 	c #FDA4B3",
"l 	c #FCA3AF",
"m 	c #FEF204",
"n 	c #000102",
"o 	c #303598",
"p 	c #2F3698",
"q 	c #010202",
"r 	c #000202",
"s 	c #010102",
"t 	c #2E3697",
"u 	c #2F3595",
"v 	c #2E3698",
"w 	c #2D3798",
"x 	c #2F3696",
"y 	c #303697",
"z 	c #2E3795",
"A 	c #303695",
"B 	c #000002",
"C 	c #2E3797",
"D 	c #2F3697",
"E 	c #303596",
"F 	c #2E3798",
"G 	c #2F3699",
"H 	c #000203",
"I 	c #313698",
"J 	c #303698",
"K 	c #010203",
"L 	c #2C3799",
"M 	c #2E3695",
"N 	c #2F3695",
"O 	c #2E3699",
"P 	c #000301",
"Q 	c #25722D",
"R 	c #2F3796",
"S 	c #FCA5B4",
"T 	c #FCA3B0",
"U 	c #FDA4B0",
"V 	c #2D3696",
"W 	c #303797",
"X 	c #000204",
"Y 	c #15431C",
"Z 	c #010001",
"` 	c #2F3797",
" .	c #FDA4B2",
"..	c #FDA4B1",
"+.	c #313697",
"@.	c #FDA2B0",
"#.	c #FEA2B2",
"$.	c #2E3593",
"%.	c #2F3799",
"&.	c #303694",
"*.	c #6D319A",
"=.	c #6E2F9A",
"-.	c #010002",
";.	c #6B3197",
">.	c #6E3299",
",.	c #6E329A",
"'.	c #6E3199",
").	c #6D3198",
"!.	c #020103",
"~.	c #2D3799",
"{.	c #2F3597",
"].	c #2D3797",
"^.	c #020102",
"/.	c #9B5A3D",
"(.	c #9A5A3D",
"_.	c #9A5A3E",
":.	c #6D3299",
"<.	c #6D3298",
"[.	c #030102",
"}.	c #01B5EE",
"|.	c #01B5ED",
"1.	c #02B5ED",
"2.	c #03B4E9",
"3.	c #6D3098",
"4.	c #00B7EF",
"5.	c #00B6EF",
"6.	c #01B5EF",
"7.	c #6E3099",
"8.	c #01B6ED",
"9.	c #6E319A",
"0.	c #03B5EF",
"a.	c #6E309A",
"b.	c #6D3096",
"c.	c #02B5EF",
"d.	c #01B6EF",
"e.	c #6D2F98",
"f.	c #00B6F0",
"g.	c #02B4EE",
"h.	c #6E3098",
"i.	c #6D3099",
"j.	c #02B6ED",
"k.	c #6E2F99",
"l.	c #6D3199",
"m.	c #6F319A",
"n.	c #01B6EE",
"o.	c #01B5F0",
"p.	c #02B4ED",
"q.	c #6D319B",
"r.	c #6D2F99",
"s.	c #00B6EE",
"t.	c #6D329A",
"u.	c #6F309B",
"v.	c #6B3297",
"w.	c #6E2F98",
"x.	c #02B5EC",
"y.	c #FEFEFE",
"z.	c #FDA4B4",
"A.	c #010402",
"B.	c #02B5EB",
"C.	c #FEA4B4",
"D.	c #FDA5B2",
"E.	c #020100",
"F.	c #FDA3B4",
"G.	c #03B4EB",
"H.	c #03B5EC",
"I.	c #FEA3B3",
"J.	c #020201",
"K.	c #04B4EC",
"L.	c #02B5EE",
"M.	c #05B4EA",
"N.	c #01B4EB",
"O.	c #000200",
"P.	c #27722D",
"Q.	c #313596",
"R.	c #303595",
". . . . + + . . . + . . . . . . . . . . + + . . . + . . . . . . . . . . + + . . . + . . . . . . . . . . + + . . . + . . . . . . ",
"+ + . . . . . . . . . + . . . + + + . . . . . . . . . + . . . + + + . . . . . . . . . + . . . + + + . . . . . . . . . + . . . + ",
"+ . . . . . . . + + . . + . . + + . . . . . . . + + . . + . . + + . . . . . . . + + . . + . . + + . . . . . . . + + . . + . . + ",
"+ + + . . + . + + . . + + + + . . + + . . + . + + . . + + + + . . + + . . + . + + . . + + + + . . + + . . + . + + . . + + + + . ",
"+ + . + + . . + + . + + + + + . . + . + + . . + + . + + + + + . . + . + + . . + + . + + + + + . . + . + + . . + + . + + + + + . ",
"+ + . + + . . . . + + + + + . . + + . + + . . . . + + + + + . . + + . + + . . . . + + + + + . . + + . + + . . . . + + + + + . . ",
"+ + . . . . . + + + + + + . . + + + . . . . . + + + + + @ # . + + + . . . . . + + + + + + . . + + + . . . . . + + + + + + . . + ",
"+ . . . + . . + . + + + + . . + + . . . + . . + . $ % # @ @ # & + . . . + . . + . + + + + . . + + . . . + . . + . + + + + . . + ",
". . . . + . + + . + + . . . . . . . . . + . + + % * = - - ; > , % . . . + . + + . + + . . . . . . . . . + . + + . + + . . . . . ",
". . . . . + + + . . . . . . . . . . . . . + + + % % ' ' ) ) ! ~ @ # . . . + + + . . . . . . . . . . . . . + + + . . . . . . . . ",
". . . . + + + . . . . + + . . . . . . . + + + . @ % ' ' ' ) ) ' { , # % + + + . . . . + + . . . . . . . + + + . . . . + + . . . ",
". + . . + . . . . . + . . . . . . + . . + . . . % % - ) ] ' ) ' ^ * / # % . . . . . + . . . . . . + . . + . . . . . + . . . . . ",
"+ . . . . . . . . + + . . . . + + . . . . . . . . ( _ _ : ' < ' % [ } | % . . . . + + . . . . + + . . . . . . . . + + . . . . + ",
". . . . . . . . . . . . . . + + . . . . . . . . . % 1 2 3 ~ } 4 ( 5 # 6 ( . . . . . . . . . + + . . . . . . . . . . . . . . + + ",
". . . . . . . . . . . . . . . . . . . . . . . . . . , 7 } ~ @ % 8 9 0 a ( * . . . . . . . . . . . . . . . . . . . . . . . . . . ",
". . . . . . + . . . . . . . . . . . . . . . + . . . % b > c @ % d e # f g # + . . . . . . . . . . . . . . . + . . . . . . . . . ",
". . . . + + . . . + . . . . . . . . . . + + . . . + # h * % i # 5 j # # a , . . . + . . . . . . . . . . + + . . . + . . . . . . ",
"+ + . . . . . . . . . + . . . + + + . . . % % 5 ( % , k k i l % # # # m a % . . . . . + . . . + + + . . . . . . . . . + . . . + ",
"+ . . . . . . . + + . . + . . + + . . . n % o p p o # q r % % s n t s * # % . . + + . . + . . + + . . . . . . . + + . . + . . + ",
"+ + + . . + . + + . . + + + + . . + % , u ( v w w p x y z ( ( z x p A B ( + . + + . . + + + + . . + + . . + . + + . . + + + + . ",
"+ + . + + . . + + . + + + + + . . + @ C D ( E D p p p p F G G p p p p p 5 . . + + . + + + + + . . + . + + . . + + . + + + + + . ",
"+ + . + + . . . . + + + + + . . + + # y D r H I F F p p w p p p p p p w b % . . . + + + + + . . + + . + + . . . . + + + + + . . ",
"+ + . . . . . + + + + + + . . + + + ( A p J # K p p p D F p D p C ( D p x n . + + + + + + . . + + + . . . . . + + + + + + . . + ",
"+ . . . + . . + . + + + + . . + + . # s G L ( A p p t @ G p B M x n p p N , % + . + + + + . . + + . . . + . . + . + + + + . . + ",
". . . . + . + + . + + . . . . . . . . 0 % b r y p J , , % % ( x 5 ( y p p O P # . + + . . . . . . . . . + . + + . + + . . . . . ",
". . . . . + + + . . . . . . . . . . . Q % % s R F J b S T U > V W s X R p p A b . . . . . . . . . . . . . + + + . . . . . . . . ",
". . . . + + + . . . . + + . . . . . . . Y * Z y ` % ,  .e ..# % +.H # 5 y D w p % . . + + . . . . . . . + + + . . . . + + . . . ",
". + . . + . . . . . + . . . . . . + . . + . q ` ` ( @.#..., 0 Z s $.% % s # %.G % . + . . . . . . + . . + . . . . . + . . . . . ",
"+ . . . . . . . . + + . . . . + + . . . . . ( &.W B @ # j , *.=.# # -.;.% % % % % + + . . . . + + . . . . . . . . + + . . . . + ",
". . . . . . . . . . . . . . + + . . . . . . * q p D A s # % s >.,.'.).!.% . . . . . . . . . + + . . . . . . . . . . . . . . + + ",
". . . . . . . . . . . . . . . . . . . . . . . 0 p p w F p p s Z # b 5 # % . . . . . . . . . . . . . . . . . . . . . . . . . . . ",
". . . . . . + . . . . . . . . . . . . . . . + 5 ~.p J J p p {.].% # % 0 . . + . . . . . . . . . . . . . . . + . . . . . . . . . ",
". . . . + + . . . + . . . . . . . . . . + + . * , % 0 b , % % # # # *.^.+ + . . . + . . . . . . . . . . + + . . . + . . . . . . ",
"+ + . . . . . . . . . + . . . + + + . . . . . # /.(.(././.(.(./._.$ :.^.. . . . . . . + . . . + + + . . . . . . . . . + . . . + ",
"+ . . . . . . . + + . . + . . + + . . . . . . # @ r @ @ r s r @ @ q <.[.. . . . + + . . + . . + + . . . . . . . + + . . + . . + ",
"+ + + . . + . + + . . + + + + . . + + . . + . b }.|.|.|.}.1.1.|.2.q 3.^.. + . + + . . + + + + . . + + . . + . + + . . + + + + . ",
"+ + . + + . . + + . + + + + + . . + . + + . . % 4.5.5.5.@ |.5.5.}.@ '.!.@ . . + + . + + + + + . . + . + + . . + + . + + + + + . ",
"+ + . + + . . . . + + + + + . . + + . + + . . % 4.5.6.5.@ 1.5.5.}.@ '.7.% . . . . + + + + + . . + + . + + . . . . + + + + + . . ",
"+ + . . . . . + + + + + + . . + + + . . . . @ 6.5.|.5.5.@ 8.5.6.}.@ '.9.^.% . + + + + + + . . + + + . . . . . + + + + + + . . + ",
"+ . . . + . . + . + + + + . . + + . . . + . @ 0.5.6.5.5.@ }.5.|.|.@ 9.a.b.( . + . + + + + . . + + . . . + . . + . + + + + . . + ",
". . . . + . + + . + + . . . . . . . . . + . @ c.5.5.5.5.% % d.5.|.n , e.).s + + . + + . . . . . . . . . + . + + . + + . . . . . ",
". . . . . + + + . . . . . . . . . . . . . + @ c.5.5.5.f., , 5.6.5.g.% <.h.# $ + . . . . . . . . . . . . . + + + . . . . . . . . ",
". . . . + + + . . . . + + . . . . . . . + + @ c.6.6.}.r Z i.# j.5.f.% ).k.=.0 . . . . + + . . . . . . . + + + . . . . + + . . . ",
". + . . + . . . . . + . . . . . . + . . + q j.5.5.5.}.H l.m.@ n.5.f.# :.9.=.b % . . + . . . . . . + . . + . . . . . + . . . . . ",
"+ . . . . . . . . + + . . . . + + . . . . % o.5.5.5.p.^.q.9.s n.5.f.} :.r.9.'.Z . + + . . . . + + . . . . . . . . + + . . . . + ",
". . . . . . . . . . . . . . + + . . . . . b n.5.5.5.s.s t.9.# 8.5.o.# ).k.k.3.Z # . . . . . + + . . . . . . . . . . . . . . + + ",
". . . . . . . . . . . . . . . . . . . . % % 5.s.5.5.% Z *.'.s 8.5.5.d.s r.9.9.u.% . . . . . . . . . . . . . . . . . . . . . . . ",
". . . . . . + . . . . . . . . . . . . . % , 5.6.5.5.@ v.9.'.s n.5.6.n.n w.k.i.9.% . . . . . . . . . . . . . + . . . . . . . . . ",
". . . . + + . . . + . . . . . . . . . . q }.5.5.5.5.5 b % , # x.5.5.n.@ -.<.>.h.# # . . . . . . . . . . + + . . . + . . . . . . ",
"+ + . . . . . . . . . + . . . + + + . . n }.6.5.5.6.b . , z.A.Z 5.5.}.# # ( Z ( , % . + . . . + + + . . . . . . . . . + . . . + ",
"+ . . . . . . . + + . . + . . + + . % @ K B.s.5.5.5.# # b C.D., 5.6.5.f.E.F.b % + + . . + . . + + . . . . . . . + + . . + . . + ",
"+ + + . . + . + + . . + + + + . . % ( G.|.s.5.5.5.5.H.# , I.> % 5.5.5.f., J.k b + . . + + + + . . + + . . + . + + . . + + + + . ",
"+ + . + + . . + + . + + + + + . . % ( K.L.L.M.0 # # # * % # K N.1.1.L.}.% % % % + . + + + + + . . + . + + . . + + . + + + + + . ",
"+ + . + + . . . . + + + + + . . + + % r s @ s * @ % % * % # % r r s ( ( % O.% % % + + + + + . . + + . + + . . . . + + + + + . . ",
"+ + . . . . . + + + + + + . . + + + . . P.% % % % # % # n +.y @ # # % % ( Q.R.( # + + + + . . + + + . . . . . + + + + + + . . + ",
"+ . . . + . . + . + + + + . . + + . . . + % % # * * * , J p o ( % % % % s y ( % . + + + + . . + + . . . + . . + . + + + + . . + ",
". . . . + . + + . + + . . . . . . . . . + % % % 5 # * # # b % % % % # % # % + + . + + . . . . . . . . . + . + + . + + . . . . . ",
". . . . . + + + . . . . . . . . . . . . . % # * * * % . . . . % % % % % % + + + . . . . . . . . . . . . . + + + . . . . . . . . ",
". . . . + + + . . . . + + . . . . . . . + + + . . . . + + . . . . . . . + + + . . . . + + . . . . . . . + + + . . . . + + . . . ",
". + . . + . . . . . + . . . . . . + . . + . . . . . + . . . . . . + . . + . . . . . + . . . . . . + . . + . . . . . + . . . . . ",
"+ . . . . . . . . + + . . . . + + . . . . . . . . + + . . . . + + . . . . . . . . + + . . . . + + . . . . . . . . + + . . . . + ",
". . . . . . . . . . . . . . + + . . . . . . . . . . . . . . + + . . . . . . . . . . . . . . + + . . . . . . . . . . . . . . + + ",
". . . . . . . . . . . . . . . . . . . . . . . . . . . . . . . . . . . . . . . . . . . . . . . . . . . . . . . . . . . . . . . . ",
". . . . . . + . . . . . . . . . . . . . . . + . . . . . . . . . . . . . . . + . . . . . . . . . . . . . . . + . . . . . . . . . "};
