/* XPM */
static char * jailopen_xpm[] = {
"64 64 21 1",
" 	c None",
".	c #1C1E20",
"+	c #FFDF46",
"@	c #000000",
"#	c #B01400",
"$	c #FC1D00",
"%	c #0D0E0F",
"&	c #474646",
"*	c #232222",
"=	c #323131",
"-	c #A46630",
";	c #A0A08D",
">	c #E6E6CA",
",	c #3DB9A0",
"'	c #181717",
")	c #090A0A",
"!	c #538EFF",
"~	c #3BB44A",
"{	c #A1A18D",
"]	c #6F6F62",
"^	c #35352F",
"......+...+..++..+..+.+..+.+++.....+.....++..+++++.+++++.+++....",
"......+...+.+..+.++.+.++.+..+......+....+..+...+.....+....+.....",
".@@@...+.+..++++.+.++.+.++..+..+++.+....+..+...+.....+....+.....",
".@@@...+.+..+..+.+..+.+..+..+......+....+..+...+.....+....+.....",
".##$....+...+..+.+..+.+..+.+++.....++++..++....+.....+...+++....",
".#$$....%%%%%%%%%%%%%%%%%%%%%%%%%%%%%%%%%%%%%%%%%%%%%%%%%%%.....",
".#$$....%%%%%%%%%%%%%%%%%%%%%%%%%%%%%%%%%%%%%%%%%%%%%%%%%%%.....",
"........%%&&&&&&&***&&&&&&&***&&&&&&&***&=&&&&&***&&&&&&%%%.....",
"........%%&&&&&&&***&&&&&&&***&&&&&&&***&=&&&&&***&&&&&&%%%.....",
"........%%&&&&&&&***&&&&&&&***&&&&&&&***&=&&&&&***&&&&&&%%%.....",
"........%%&&&&&&&***&&&&&&&***&&&&&&&***&=&&&&&***&&&&&&%%%.....",
"........%%&&&&&&&***&&&&&&&***&&&&&&-***&=&&&&&***&&&&&&%%%.....",
"........%%&&&&&&&***&&&&&&&***&&&&&-;***&=&&&&&***&&&&&&%%%.....",
"........%%&&&&&&&***&&&&&&&***&&&&-;>***-=&&&&&***&&&&&&%%%.....",
"........%%&&&&&&&***&&&&&&&***&&&-;>>***;-&&&&&***&&&&&&%%%.....",
"........%%&&&&&&&***&&&&&&&***&&-;;>>***>;-&&&&***&&&&&&%%%.....",
".......***&&&&&&&***&&&&&&&***&-;,>;>***>>;-&&&***&&&&&&%%%.....",
".......*'*&&&&&&&***&&&&&&&***-;,,,>;***>>;-&&&***&&&&&&%%%.....",
".......*'*&&&&&&&***&&&&&&&***;>>,,,>***>;--&&&***&&&&&&%%%.....",
".......***&&&&&&&***&&&&&&&***,>>>,,,***;---&&&***&&&&&&%%%.....",
"........))&&&&&&&***&&&&&&-***,,>>>,,***----&&&***&&&&&&%%%.!!!.",
"........%%&&&&&&&***&&&&&-;***,,,>>>,***--&-&&&***&&&&&&%%%.!~!.",
"........%%&&&&&&&***&&&&-;,***>,,,>>{***-=&-&&&***&&&&&&%%%.!!!.",
"........%%&&&&&&&***&&&-;,,***>>,,,{-***&=&-&&&***&&&&&&%%%.....",
"........%%&&&&&&&***&&-{>>,***>>>,{--***&=&-&&&***&&&&&&%%%.....",
"........%%&&&&&&&***&&--{>>***,>>{---***&=&-&&&***&&&&&&%%%.....",
"........%%&&&&&&&***&&---{>***,,{----***&=&-&&&***&&&&&&%%%.....",
"........%%&&&&&&&***&&----{***,{---&-***&=&-&&&***&&&&&&%%%.....",
"........%%&&&&&&&***&&-----***{---&&-***&=&-&&&***&&&&&&%%%.....",
"........%%&&&&&&&***&&-&---***----&&-***&=&-&&&***&&&&&&%%%.;;;.",
"........%%&&&&&&&***&&-&&--***--&-&&-***&=&-&&&***&&&&&&%%%.]]].",
".......***&&&&&&&***&&-&&&-***-&&-&&-***&=&-&&&***&&&&&&%%%.^^^.",
".......*'*&&&&&&&***&&-&&&&***-&&-&&-***&=&-&&&***&&&&&&%%%.^^^.",
".......*'*&&&&&&&***&&-&&&&***-&&-&&-***&=&-&&&***&&&&&&%%%.]]].",
".......***&&&&&&&***&&-&&&&***-&--&&-***&=&-&&&***&&&&&&%%%.;;;.",
"........%%&&&&&&&***&&-&&&&***----&-;***-&=-&&&***&&&&&&%%%.....",
"........%%&&&&&&&***&&-&&&&***--&--;>***;---==&***&&&&&&%%%.....",
"........%%&&&&&&&***&&-&&&&***-&&-;;>***>;--&&=***&&&&&&%%%.....",
"........%%&&&&&&&***&&-&&&&***-&--,,;***;---&&&***=&&&&&%%%.....",
"........%%&&&&&&&***&&-&&&&***--;->,,***----&&&***&==&&&%%%.....",
"........%%&&&&&&&***&&-&&&&***-;>->>,***--&-&&&***&&&==&%%%.....",
"........%%&&&&&&&***&&-&&&&***-,,->>>***-&&-&&&***&&&&&=%%%.....",
"........%%&&&&&&&***&&-&&&&***-,--,>;***&&&&&&&***&&&&&&%%%.....",
"........%%&&&&&&&***&&-&&&-***----,;-***&&&&&&&***&&&&&&%%%.....",
"........%%&&&&&&&***&&-&&-;***-->-,--***&&&&&&&***&&&&&&%%%.....",
".......***&&&&&&&***&&-&-;,***->>-;--***&&&&&&&***&&&&&&%%%.....",
".......*'*&&&&&&&***&&--;>>***-,>---&***&&&&&&&***&&&&&&%%%.....",
".......*'*&&&&&&&***&&--;;>***-,;--&&***&&&&&&&***&&&&&&%%%.....",
".......***&&&&&&&***&&----;***-;--&&&***&&&&&&&***&&&&&&%%%.....",
"........%%&&&&&&&***&&-&---***----&&&***&&&&&&&***&&&&&&%%%.....",
"........%%&&&&&&&***&&-=&--***--&-&&&***&&&&&&&***&&&&&&%%%.....",
"........%%&&&&&&&***&&-&&&-***-&&-&&&***&&&&&&&***&&&&&&%%%.....",
"........%%&&&&&&&***&=-&&&&***-&&-&&&***&&&&&&&***&&&&&&%%%.....",
"........%%&&&&&&&***=&&&&&&***-&&-&&&***&&&&&&&***&&&&&&%%%.....",
"........%%&&&&&&&***&&&&&&&***-&&&&&&***&&&&&&&***&&&&&&%%%.....",
"........%%&&&&&&&***&&&&&&&***-&&&&&&***&&&&&&&***&&&&&&%%%.....",
"........%%&&&&&&=***&&&&&&&***-&&&&&&***&&&&&&&***&&&&&&%%%.....",
"........%%&&&&&=&***&&&&&&&***&&&&&&&***&&&&&&&***&&&&&&%%%.....",
"........%%&&&&=&&***&&&&&&&***&&&&&&&***&&&&&&&***&&&&&&%%%.....",
"........%%&&&==&&***&&&&&&&***&&&&&&&***&&&&&&&***&&&&&&%%%.....",
"........%%&&=&&&&***&&&&&&&***&&&&&&&***&&&&&&&***&&&&&&%%%.....",
"........%%&=&&&&&***&&&&&&&***&&&&&&&***&&&&&&&***&&&&&&%%%.....",
"........%%=&&&&&&***&&&&&&&***&&&&&&&***&&&&&&&***&&&&&&%%%.....",
"........%%%%%%%%%%%%%%%%%%%%%%%%%%%%%%%%%%%%%%%%%%%%%%%%%%%....."};
