/* XPM */
static char * killingr_xpm[] = {
"64 64 30 1",
" 	c None",
".	c #25722C",
"+	c #154219",
"@	c #000000",
"#	c #010101",
"$	c #FE7F00",
"%	c #010001",
"&	c #FEF201",
"*	c #B89EA2",
"=	c #FEA3B1",
"-	c #FCA3B1",
";	c #2F3698",
">	c #333A8D",
",	c #48236B",
"'	c #807712",
")	c #1A0D27",
"!	c #3E1E5D",
"~	c #E41B23",
"{	c #12091A",
"]	c #6A3198",
"^	c #1E0F2D",
"/	c #9A5F16",
"(	c #050206",
"_	c #6D3298",
":	c #9A5A3D",
"<	c #00B6EF",
"[	c #32194C",
"}	c #646D90",
"|	c #FFFFFF",
"1	c #2E3698",
"....++...+..........++...+..........++...+..........++...+......",
"++.........+...+++.........+...+++.........+...+++.........+...+",
"+.......++..+..++.......++..+..++.......++..+..++.......++..+..+",
"+++..+.++..++++..++..+.++..++++..++..+.++..++++..++..+.++..++++.",
"++.++..++.+++++..+.++@@++.+++++..+.++..++.+++++..+.++..++.+++++.",
"++.++....+++++..++.+#@@#@#++++..++.++....+++++..++.++....+++++..",
"++.....++++++..+++@#@$$$$@#++..+++.....++++++..+++.....++++++..+",
"+...+..+.++++..++@@$$$$$$@@++..++...+..+.++++..++...+..+.++++..+",
"....+.++.++....%#@$$$$$$$@@.........+.++.++@@@..@@..+@@+.++.....",
".....+++......%@&@@$$$$$$##..........+++....@@@@@@@@@@@@........",
"....+++....++.@&#&@$$$$$$#.++.......+++....+@**********@@..++...",
".+..+.....+...#&@@#$@$#$@@+......+..+.....+.@@@@********@.+.....",
"+........++..#@&#=#%@$#$@++....++........++..@@@@@@@****@++....+",
".............@&&@==@#$@@%.....++..............@----@@***@.....++",
".............#&@@=%#=#@=#....................@@-@---@***@.......",
"......+......@&&##%@====@#@@#@@.......+.....@-----@-@**@@.......",
"....++...+...##%@;@###@@@;;;;#@.....++...+..@@----@@@**@.+......",
"++.........+..%@;;;;##;;;;;;;;;@++.........+.@@------@@@...+...+",
"+.......++..+.@;>,;;;;;;;;;;;;;@@.......++..+.@-------@.++..+..+",
"+++..+.++..++@#;;;;;;;@;;;;;@;;;@++..+.++..++@@@@--@@@@++..++++.",
"++.++..++.+++@;;;;@;;;;#;;;@#;;;@@.++..++.+++@'''@@@'@@++.+++++.",
"++.++....++++@;;;;@;;;;@;;;;%;;;@+.++....++++@'''''''@...+++++..",
"++.....+++++@@;;;;@;;;;@;;;;#;;;#+.....+++++@@@@@@@''@.++++++..+",
"+...+..+.+++@;;;;;@;;;);;;;;#@;;@@..+..+.+++@'''''@@@'@+.++++..+",
"....+.++.++.@#;;;@;;;!;@;;;;@@;;;@..+.++.++.@'''''''''@+.++.....",
".....+++....@#;;;#;;,;;@;;;;@;;;@@...+++....@'''''''@'@@........",
"....+++....+@#;;#%;;;;;;;;;;#;;#%...+++....@@@''''''@@'@...++...",
".+..+.....+..#;;#@@;%#@#;;;@@;@@.+..+.....@~~@@@'''''@'@..+.....",
"+........++..%;;{,@@@%=##;;#@@@++...@@@..+@@@@~@'''''@'@.++....+",
"..............@##]]]@%==%;;^..++....@/@..@@~~~~@'''''@'@@.....++",
"...............@,##%#===@@#(.......@@@@@@@@~~~@@'''@''''@.......",
"......+........@_#@::%==#::#.......@@---@~~~~@@@@'''''''@.......",
"....++...+.....@_@^@@@#@@#@@.......@@---@~~@@@@'@'@'@'''@+......",
"++.........+...@_@<<<<<<<<<@...+++.@@@@-@~@@~~@'@'@'@'''@@.+...+",
"+.......++..+.@%_#<<<<[<<<<%+..++...@/@@@@@@@~@'@'@''@'''@..+..+",
"+++..+.++..+++#__@<<<<(<<<<@+++..++.@/@++..+@@@'@@'''@'''@.++++.",
"++.++..++.+++@@__#<<<<@<<<<<@++..+.+@@@@+.++@/@''''''''''@+++++.",
"++.++....++++@___@<<<<@<<<<<#+..++.+@**@.+++@@@''''''''''@++++..",
"++.....++++++#__@#<<<@@<<<<<@..+++..@**@++++@@@''''''''''@+++..+",
"+...+..+.+++@#__%<<<<@#<<<<<@..++...@*@@.++@@}@'''@''''''@+++..+",
"....+.++.++.@___@<<<#]%@<<<<%.......@*@+.++@}}@'''@''''''@@.....",
".....+++...@#___@<<<@]]@<<<<<#......@@@+...@}@@'''@'''@@''@.....",
"....+++....@____#<<<#]]#<<<<<#......@@+...@@}@'''''@'''@''@++...",
".+..+.....@#____@<<<#]]#<<<<<@...+..@.....@}}@'''''@'''@''@.....",
"+........+@____@<<<<#]]##<<<<@@++........+@}}@'''''@'''@''@....+",
"..........#____@<<<<#]]]@<<<<#@+..........@}}}@@@@@@@@@@@@@...++",
".........@%___#@<<<<%@##@<<<<<#...........@@}}@.@}}}@@..........",
"......+..@#%@%@#<<<%@=@.%<<<<<@.......+....@}}@..@}}}@+.........",
"....++...+.@#=#<<<<@==@##<<<<<#%@...++...+@@@@@.@@@@@@...+......",
"++.........@=@@<<<<@@=%#<<<<<<<<%@.......@////@.@////@.....+...+",
"+.......++.@%@%<<<<<@@@@###@<<<<#%......@@//@@@@@//@@@..++..+..+",
"+++..+.++.@@@@##@@####%%@@@#@##@@++..+.+@@@@@@@@@@@@@@.++..++++.",
"++.++..++.@@11@@#@@@11#@@@@@@@+..+.++..++.+++++..+.++..++.+++++.",
"++.++....++@%1@#@@@#111@@###%#..++.++....+++++..++.++....+++++..",
"++.....++++++##%@##@@@@@@##%%%.+++.....++++++..+++.....++++++..+",
"+...+..+.++++.@#@@@#+..+%#@#%@.++...+..+.++++..++...+..+.++++..+",
"....+.++.++.........+.++.++.........+.++.++.........+.++.++.....",
".....+++.............+++.............+++.............+++........",
"....+++....++.......+++....++.......+++....++.......+++....++...",
".+..+.....+......+..+.....+......+..+.....+......+..+.....+.....",
"+........++....++........++....++........++....++........++....+",
"..............++..............++..............++..............++",
"................................................................",
"......+...............+...............+...............+........."};
