/* XPM */
static char * killing_xpm[] = {
"64 64 30 1",
" 	c None",
".	c #25722C",
"+	c #154219",
"@	c #000000",
"#	c #010101",
"$	c #FE7F00",
"%	c #010001",
"&	c #FEF201",
"*	c #B89EA2",
"=	c #FEA3B1",
"-	c #FCA3B1",
";	c #2F3698",
">	c #48236B",
",	c #333A8D",
"'	c #807712",
")	c #1A0D27",
"!	c #3E1E5D",
"~	c #12091A",
"{	c #E41B23",
"]	c #1E0F2D",
"^	c #6A3198",
"/	c #050206",
"(	c #9A5F16",
"_	c #9A5A3D",
":	c #6D3298",
"<	c #00B6EF",
"[	c #32194C",
"}	c #646D90",
"|	c #FFFFFF",
"1	c #2E3698",
"....++...+..........++...+..........++...+..........++...+......",
"++.........+...+++.........+...+++.........+...+++.........+...+",
"+.......++..+..++.......++..+..++.......++..+..++.......++..+..+",
"+++..+.++..++++..++..+.++..++++..++..+.++..++++..++..+.++..++++.",
"++.++..++.+++++..+.++..++.+++++..+.++..++.+++++..+.++..++.+++++.",
"++.++....+++++..++.++....+++++..++.++....+@@++..++.++....+++++..",
"++.....++++++..+++.....++++++..+++.....#@#@@#..+++.....++++++..+",
"+...+..+.++++..++...+..+.++++..++...+.#@$$$$@#@++...+..+.++++..+",
"....+.++.++.........+.++.++.........+.@@$$$$$$@@....+.++.++.....",
".....+++.............+++.............+@@$$$$$$$@#%...+++........",
"....+++....++.......+++....++.......++##$$$$$$@@&@%.+++....++...",
".+..+....@@...@@.+@@@.....+......+..+..#$$$$$$@&#&@.+.....+.....",
"+.......@@@@@@@@@@@@.....++....++......@@$#$@$#@@&#......++....+",
".......@@**********@..........++........@$#$@%#=#&@#..........++",
".......@********@@@@....................%@@$#@==@&&@............",
"......+@****@@@@@@@...+...............+.#=@#=#%=@@&#..+.........",
"....++.@***@@----@..++...+........@@#@@#@====@%##&&@++...+......",
"++.....@***@---@-@@........+...+++@#;;;;@@@###@;@%##.......+...+",
"+......@@**@-@-----@....++..+..++@;;;;;;;;;##;;;;@%.....++..+..+",
"+++..+.+@**@@@----@@.+.++..++++.@@;;;;;;;;;;;;;>,;@..+.++..++++.",
"++.++..+@@@------@@++..++.+++++.@;;;@;;;;;@;;;;;;;#@+..++.+++++.",
"++.++....@-------@.++....+++++.@@;;;#@;;;#;;;;@;;;;@+....+++++..",
"++.....++@@@@--@@@@....++++++..+@;;;%;;;;@;;;;@;;;;@...++++++..+",
"+...+..+.@@'@@@'''@.+..+.++++..+#;;;#;;;;@;;;;@;;;;@@..+.++++..+",
"....+.++.+@'''''''@.+.++.++....@@;;@#;;;;;);;;@;;;;;@.++.++.....",
".....+++..@''@@@@@@@.+++.......@;;;@@;;;;@;!;;;@;;;#@+++........",
"....+++..@'@@@'''''@+++....++..@@;;;@;;;;@;;>;;#;;;#@++....++...",
".+..+....@'''''''''@+.....+.....%#;;#;;;;;;;;;;%#;;#@.....+.....",
"+.......@@'@'''''''@.....++....++@@;@@;;;#@#%;@@#;;#.....++....+",
"........@'@@''''''@@@.........++..@@@#;;##=%@@@>~;;%..........++",
"........@'@'''''@@@{{@...............];;%==%@^^^##@.............",
"......+.@'@'''''@{@@@@+..@@@........./#@@===#%##>@....+.........",
"....++.@@'@'''''@{{{{@@..@(@........+#__#==%__@#:@..++...+......",
"++.....@''''@'''@@{{{@@@@@@@@..+++...@@#@@#@@@]@:@.........+...+",
"+......@'''''''@@@@{{{{@---@@..++....@<<<<<<<<<@:@......++..+..+",
"+++..+.@'''@'@'@'@@@@{{@---@@++..++..%<<<<[<<<<#:%@..+.++..++++.",
"++.++.@@'''@'@'@'@{{@@{@-@@@@++..+.++@<<<</<<<<@::#++..++.+++++.",
"++.++.@'''@''@'@'@{@@@@@@@(@++..++.+@<<<<<@<<<<#::@@+....+++++..",
"++....@'''@'''@@'@@@...++@(@+..+++..#<<<<<@<<<<@:::@...++++++..+",
"+...+.@''''''''''@(@+..+@@@@+..++...@<<<<<@@<<<#@::#+..+.++++..+",
"....+.@''''''''''@@@+.++@**@........@<<<<<#@<<<<%::#@.++.++.....",
".....+@''''''''''@@@.+++@**@........%<<<<@%^#<<<@:::@+++........",
"....++@''''''@'''@}@@++.@@*@+......#<<<<<@^^@<<<@:::#@+....++...",
".+..+@@''''''@'''@}}@....@*@.....+.#<<<<<#^^#<<<#::::@....+.....",
"+....@''@@'''@'''@@}@....@@@...++..@<<<<<#^^#<<<@::::#@..++....+",
".....@''@'''@'''''@}@@....@@..++..@@<<<<##^^#<<<<@::::@.......++",
".....@''@'''@'''''@}}@.....@......@#<<<<@^^^#<<<<@::::#.........",
".....@''@'''@'''''@}}@+...........#<<<<<@##@%<<<<@#:::%@........",
"....+@@@@@@@@@@@@@}}}@...+........@<<<<<%.@=@%<<<#@%@%#@.+......",
"++........@@}}}@.@}}@@.....+...+@%#<<<<<##@==@<<<<#=#@.....+...+",
"+.......++@}}}@..@}}@...++..+..@%<<<<<<<<#%=@@<<<<@@=@..++..+..+",
"+++..+.++.@@@@@@.@@@@@.++..++++%#<<<<@###@@@@<<<<<%@%@.++..++++.",
"++.++..++.@((((@.@((((@++.+++++.@@##@#@@@%%####@@##@@@@++.+++++.",
"++.++....+@@@((@@@@@((@@.+++++..++.@@@@@@@#11@@@#@@11@@..+++++..",
"++.....+++@@@@@@@@@@@@@@+++++..+++.#%###@@111#@@@#@1%@.++++++..+",
"+...+..+.++++..++...+..+.++++..++..%%%##@@@@@@##@%##+..+.++++..+",
"....+.++.++.........+.++.++........@%#@#%++..#@@@#@.+.++.++.....",
".....+++.............+++.............+++.............+++........",
"....+++....++.......+++....++.......+++....++.......+++....++...",
".+..+.....+......+..+.....+......+..+.....+......+..+.....+.....",
"+........++....++........++....++........++....++........++....+",
"..............++..............++..............++..............++",
"................................................................",
"......+...............+...............+...............+........."};
