/* XPM */
static char * lose_xpm[] = {
"64 64 23 1",
" 	c None",
".	c #25722C",
"+	c #154219",
"@	c #000000",
"#	c #FFFFFF",
"$	c #17274D",
"%	c #FFDF46",
"&	c #667176",
"*	c #B89EA2",
"=	c #0D0E0F",
"-	c #FCA3B1",
";	c #3B1B10",
">	c #807712",
",	c #101B36",
"'	c #E41B23",
")	c #9A5F16",
"!	c #636F63",
"~	c #090A0A",
"{	c #060707",
"]	c #323131",
"^	c #2A4684",
"/	c #1D315C",
"(	c #646D90",
"....++...+..........++...+..........++...+..........++...+......",
"++.........+...+++.........+...+++.........+...+++.........+...+",
"+.......++..+..++.......++..+..++.....@@@@@@@@@@@@@@@...++..+..+",
"+++..+.++..++++..++..+.++..++++.@@@@@@###############@@@@@@++++.",
"++.++..++.+++++..+.++..++.+++@@@###########################@@@+.",
"++.++....+++++..++.++....++@@#################################@@",
"++.....++++++..+++.....++@@####@@@#@@@@###@##@#@@@##@###########",
"+...+..+.++++..++...+..@@#####@####@######@@#@##@###@###########",
"....+.++.++.........+.@########@@##@@@####@#@@##@###############",
".....+++.............+@##########@#@######@##@##@###############",
"....+++....++.......+@########@@@##@@@@###@##@#@@@##############",
".+..+.....+......+..+@##########################################",
"+........++....++....@########@###@##@@##@##@#@@@###@@##########",
"..............++......@#######@@#@@#@##@#@@#@#@##@#@##@#########",
"......................@#######@#@#@#@##@#@#@@#@##@#@##@#########",
"......+...............+@@#####@###@#@##@#@##@#@##@#@##@#########",
"....++...+..........++...@@###@###@##@@##@##@#@@@###@@##@#@#@###",
"++.........+...+++.........@@########################@@@@@@###@@",
"+.......++..+.@@+..@@..@@@..+@@#####################@$$$$$$@@@.+",
"+++..+.++..++@@@@@@@@@@@@..+++@####################%&$$$$$$$$@+.",
"++.++..++.++@@**********@.++++@#####@@@@@@@@@@@@@@@%&$$$$$$$$$@.",
"++.++....+++@********@@@@++++@@#####@....+++++..==$&&$$$$$$$$$@.",
"++.....+++++@****@@@@@@@+++++@#####@@..++++++..====@@@@@@@=====+",
"+...+..+.+++@***@@----@+.+++@@####@@+..+.++++..++...@----@@;;;=+",
"....+.++.++.@***@---@-@@.++.@###@@@.+.++.++........@@-@---@;;;@.",
".....+++....@@**@-@-----@..@@#@@@....+++..........@-----@-@;;@@.",
"....+++....++@**@@@----@@.@@@@......+++....++.....@@----@@@;;@..",
".+..+.....+..@@@------@@..+......+..+.....+......+.@@------@@@..",
"+........++...@-------@..++....++........++....++...@-------@..+",
"..............@@@@--@@@@......++..............++.....@@--@@@@.++",
"..............@@>@@@>>>@..............................=@@@-@@...",
"......+........@>>>>>>>@..............+...............=----@....",
"....++...+.....@>>@@@@@@@+..........++...+..........========....",
"++.........+..@>@@@>>>>>@..+...+++.........+...+++.=,$$$$,,,@..+",
"+.......++..+.@>>>>>>>>>@+..+..++.......++..+..++.=,$$$$$$$,@..+",
"+++..+.++..++@@>@>>>>>>>@..++++..++..+.++..++++..+@$$$$$$$$,@++.",
"++.++..++.+++@>@@>>>>>>@@@+++++..+.++..++.+++++.@@,$$$$$$$$,=++.",
"++.++....++++@>@>>>>>@@@''@+++..++.++....+++++.@$$$$$$$$$$$,=+..",
"++.....++++++@>@>>>>>@'@@@@++.@@@+.....++++++..@$$$,=$$$$$$,=..+",
"+...+..+.+++@@>@>>>>>@''''@@+.@)@...+..+.++++..@$$$,=$$$$$$,=..+",
"....+.++.++.@>>>>@>>>@@'''@@@@@@@@..+.++.++...@$$$$,=$$$$$$,=...",
".....+++....@>>>>>>>@@@@''''@---@@...+++.=@@@@@$$$,=$$$$$$$,=...",
"....+++....+@>>>@>@>@>@@@@''@---@@..+++.@@---@$$$$,=$$$$$$$,=...",
".+..+.....+@@>>>@>@>@>@''@@'@-@@@@..+...@@---@$$,,=$$$$$$$$,=...",
"+........++@>>>@>>@>@>@'@@@@@@@)@.......!@@@-@$,==$$,~~~~$,,=..+",
"...........@>>>@>>>@@>@@@.....@)@.......!.!@@@@@==@$,~~{~$,@=.++",
"...........@>>>>>>>>>>@)@....@@@@.......!!!.......@]]~~~~]]==...",
"......+....@>>>>>>>>>>@@@....@**@.....+!!.........=]]]~~~]]=....",
"....++...+.@>>>>>>>>>>@@@+...@**@...++!!.+.........@@^~~~^/=....",
"++.........@>>>>>>@>>>@(@@.+.@@*@+..!!!....+...+++@@^^^~~^/=...+",
"+.......++@@>>>>>>@>>>@((@..+.@*@...!.!.++..+..+@@@^^^^=~^/=+..+",
"+++..+.++.@>>@@>>>@>>>@@(@.+++@@@++.!!!++..++++.@@^^^^^^^^/=+++.",
"++.++..++.@>>@>>>@>>>>>@(@@++++@@+.++..++.+++++.@@^^^^/^^^/=+++.",
"++.++....+@>>@>>>@>>>>>@((@+++..@+.++....+++++.@@@^^^/=^^^/=++..",
"++.....+++@>>@>>>@>>>>>@((@++..+++.....++++++..@^^^^/==^^^/=+..+",
"+...+..+.+@@@@@@@@@@@@@(((@++..++...+..+.++++..@^^^/=.=^^^/=+..+",
"....+.++.++....@@(((@.@((@@.........+.++.++....@^^^/=.=^^^/@....",
".....+++.......@(((@..@((@...........+++.......@@@^/@.@^^^/@....",
"....+++....++..@@@@@@.@@@@@++.......+++....++...@@^/@..@^^/@+...",
".+..+.....+....@))))@.@))))@.....+..+.....+....@@@@@@.@@@@@@....",
"+........++....@@@))@@@@@))@@..++........++...@)))))@.@))))@...+",
"..............+@@@@@@@@@@@@@@.++.............@@)))@@@@@))@@@..++",
".............................................@@@@@@@@@@@@@@@....",
"......+...............+...............+...............+........."};
