/* XPM */
static char * pixil_frame_0_xpm[] = {
"32 32 19 1",
" 	c None",
".	c #CCC4CA",
"+	c #43433C",
"@	c #FFB6B6",
"#	c #FFCEB6",
"$	c #FFDDB6",
"%	c #FFEFB6",
"&	c #FCFFB6",
"*	c #EDFFB6",
"=	c #D0FFB6",
"-	c #B6FFC3",
";	c #B6FFD8",
">	c #B6FFFA",
",	c #B6EFFF",
"'	c #B6DDFF",
")	c #B6CBFF",
"!	c #B6B6FF",
"~	c #DAB6FF",
"{	c #EDB6FF",
"................................",
"................................",
"................................",
"................................",
"................................",
"................................",
"................................",
"................................",
"................................",
"................................",
"................................",
"................................",
"................................",
"................................",
"................................",
"................................",
"................................",
"................................",
"................................",
"................................",
"................................",
"................................",
"................................",
"................................",
"................................",
"................................",
"................................",
"................................",
"................................",
"................................",
"++++++++++++++++++++++++++++++++",
"@#$%&*=-;>,')!~{@#$%&*=-;>,')!~{"};
