/* XPM */
static char * pacciansjail2_xpm[] = {
"64 64 26 1",
" 	c None",
".	c #1C1E20",
"+	c #FFDF46",
"@	c #0D0E0F",
"#	c #474646",
"$	c #232222",
"%	c #323131",
"&	c #A46630",
"*	c #A0A08D",
"=	c #E6E6CA",
"-	c #3DB9A0",
";	c #181717",
">	c #090A0A",
",	c #000000",
"'	c #538EFF",
")	c #3BB44A",
"!	c #B89EA2",
"~	c #A1A18D",
"{	c #FCA3B1",
"]	c #6F6F62",
"^	c #35352F",
"/	c #807712",
"(	c #DC1B23",
"_	c #9A5D17",
":	c #FFFFFF",
"<	c #566CCA",
"......+...+..++..+..+.+..+.+++.....+.....++..+++++.+++++.+++....",
"......+...+.+..+.++.+.++.+..+......+....+..+...+.....+....+.....",
".......+.+..++++.+.++.+.++..+..+++.+....+..+...+.....+....+.....",
".......+.+..+..+.+..+.+..+..+......+....+..+...+.....+....+.....",
"........+...+..+.+..+.+..+.+++.....++++..++....+.....+...+++....",
"........@@@@@@@@@@@@@@@@@@@@@@@@@@@@@@@@@@@@@@@@@@@@@@@@@@@.....",
"........@@@@@@@@@@@@@@@@@@@@@@@@@@@@@@@@@@@@@@@@@@@@@@@@@@@.....",
"........@@#######$$$#######$$$#######$$$#%#####$$$######@@@.....",
"........@@#######$$$#######$$$#######$$$#%#####$$$######@@@.....",
"........@@#######$$$#######$$$#######$$$#%#####$$$######@@@.....",
"........@@#######$$$#######$$$#######$$$#%#####$$$######@@@.....",
"........@@#######$$$#######$$$######&$$$#%#####$$$######@@@.....",
"........@@#######$$$#######$$$#####&*$$$#%#####$$$######@@@.....",
"........@@#######$$$#######$$$####&*=$$$&%#####$$$######@@@.....",
"........@@#######$$$#######$$$###&*==$$$*&#####$$$######@@@.....",
"........@@#######$$$#######$$$##&**==$$$=*&####$$$######@@@.....",
".......$$$#######$$$#######$$$#&*-=*=$$$==*&###$$$######@@@.....",
".......$;$#######$$$#######$$$&*---=*$$$==*&###$$$######@@@.....",
".......$;$#######$$$#######$$$*==---=$$$=*&&###$$$######@@@.....",
".......$$$#######$$$#######$$$-===---$$$*&&&###$$$######@@@.....",
"........>>######,$$$######&$$$--===--$$$&&&&###$$$######@@@.'''.",
"........@@,,,,,,,,,,,,###&*$$$---===-$$$&&#&###$$$######@@@.')'.",
"........@@,!!!!!!!!!,,##&*-$$$=---==~$$$&%#&###$$$######@@@.'''.",
"........@,,!!!!!!!!,,##&*--$$$==---~&$$$#%#&###$$$######@@@.....",
"........@,!!!!,,,,,,##&~==-$$$===-~&&$$$#%#&###$$$######@@@.....",
"........@,!!!!,{{{{,##&&~==$$$-==~&&&$$$#%#&###$$$######@@@.....",
"........@,,!!,,,{,{,,,&&&~=$$$--~&&&&$$$#%#&###$$$######@@@.....",
"........@@,!!,{,{{{{{,&&&&~$$$-~&&&#&$$$#%#&###$$$######@@@.....",
"........@,,!,{,,{{{{,,&&&&&$$$~&&&##&$$$#%#&###$$$######@@@.....",
"........@,,,,{{{{{{,,#&#&&&$$$&&&&##&$$$#%#&###$$$######@@@.***.",
"........@@#,{{{{{{{,##&##&&$$$&&#&##&$$$#%#&###$$$######@@@.]]].",
".......$$$#,,,,{{,,,,#&###&$$$&##&##&$$$#%#&###$$$######@@@.^^^.",
".......$;$#,///,,///,#&####$$$&##&##&$$$#%#&###$$$######@@@.^^^.",
".......$;$#,,///////,#&####$$$&##&##&$$$#%#&###$$$######@@@.]]].",
".......$$$##,,/,,,,,,,&####$$$&#&&##&$$$#%#&###$$$######@@@.***.",
"........@@#,/,,,/////,&####$$$&&&&#&*$$$&#%&###$$$######@@@.....",
"........@@#,/////////,&####$$$&&#&&*=$$$*&&&%%#$$$######@@@.....",
"........@@#,,///////,,&####$$$&##&**=$$$=*&&##%$$$######@@@.....",
"........@@##,//////,,,&####$$$&#&&--*$$$*&&&###$$$%#####@@@.....",
"........@@#,,/////,,(,,####$$$&&*&=--$$$&&&&###$$$#%%###@@@.....",
"........@@,,//////,(((,,###$$$&*=&==-$$$&&#&###$$$###%%#@@@.....",
"........@@,///////,((((,,##$$$&--&===$$$&##&###$$$#####%@@@.....",
"........@,,///////,(((((,,#$$$&-&&-=*$$$#######$$$######@@@.....",
"........@,////////,((((((,,$$$&&&&-*&$$$#######$$$######@@@.....",
"........@,////////,,,(((((,,$$,,=&-&&$$$#######$$$######@@@.....",
".......$,,/////,,,/,,,(((,,,,,_,=&*&&$$$#######$$$######@@@.....",
".......$,//////,///,(,,,,,{{,,,,=&&&#$$$#######$$$######@@@.....",
".......$,//////,///,,,:,,,,{{,,-*&&##$$$#######$$$######@@@.....",
".......,//////,////,_,,:,_,,,,&*&&###$$$#######$$$######@@@.....",
"......,,///////////,,,!,,,,,$$&&&&###$$$#######$$$######@@@.....",
"......,////////,///,<,,,,&&$$$&&#&###$$$#######$$$######@@@.....",
"......,////,///,///,<,,,,#&$$$&##&###$$$#######$$$######@@@.....",
"......,////,///,///,<<<<,,#$$$&##&###$$$#######$$$######@@@.....",
"......,///,,//,,///,<<<<<,,$$$&##&###$$$#######$$$######@@@.....",
".....,,///,//,,///,,<<<<<<,$$$&######$$$#######$$$######@@@.....",
".....,///,,//,////,,,,,,<<,$$$&######$$$#######$$$######@@@.....",
".....,///,///,///,,$##,<<<,$$$&######$$$#######$$$######@@@.....",
".....,,,,,,,,,,,,,$$##,<<,,$$$#######$$$#######$$$######@@@.....",
".......,,,##,,,,,,$$#,,<,,#$$$#######$$$#######$$$######@@@.....",
"........@@##,,<<<,$$#,,,,##$$$#######$$$#######$$$######@@@.....",
"........@@##,,,,,,$$#,__,,#$$$#######$$$#######$$$######@@@.....",
"........@@#%,,___,,$#,___,,$$$#######$$$#######$$$######@@@.....",
"........@@%##,,___,$#,,,,,,$$$#######$$$#######$$$######@@@.....",
"........@@@@@@,,,,,,@@@@@@@@@@@@@@@@@@@@@@@@@@@@@@@@@@@@@@@....."};
