/* XPM */
static char * paccians2_xpm[] = {
"64 64 11 1",
" 	c None",
".	c #25722C",
"+	c #154219",
"@	c #000000",
"#	c #B89EA2",
"$	c #FCA3B1",
"%	c #807712",
"&	c #DC1B23",
"*	c #9A5D17",
"=	c #FFFFFF",
"-	c #566CCA",
"....++...+..........++...+..........++...+..........++...+......",
"++.........+...+++.........+...+++.........+...+++.........+...+",
"+.......++..+..++.......++..+..++.......++..+..++.......++..+..+",
"+++..+.++..++++..++..+.++..++++..++..+.++..++++..++..+.++..++++.",
"++.++..++.+++++..+.++..++.+++++..+.++..++.+++++..+.++..++.+++++.",
"++.++....+++++..++.++....+++++..++.++....+++++..++.++....+++++..",
"++.....++++++..+++.....++++++..+++.....++++++..+++.....++++++..+",
"+...+..+.++++..++...+..+.++++..++...+..+.++++..++...+..+.++++..+",
"....+.++.++.....@...+.++.++.........+.++.++.........+.++.++.....",
".....+++..@@@@@@@@@@@@++.............+++.............+++........",
"....+++...@#########@@+....++.......+++....++.......+++....++...",
".+..+....@@########@@.....+......+..+.....+......+..+.....+.....",
"+........@####@@@@@@.....++....++........++....++........++....+",
".........@####@$$$$@..........++..............++..............++",
".........@@##@@@$@$@@@..........................................",
"......+...@##@$@$$$$$@+...............+...............+.........",
"....++...@@#@$@@$$$$@@...+..........++...+..........++...+......",
"++.......@@@@$$$$$$@@......+...+++.........+...+++.........+...+",
"+.......++.@$$$$$$$@....++..+..++.......++..+..++.......++..+..+",
"+++..+.++..@@@@$$@@@@+.++..++++..++..+.++..++++..++..+.++..++++.",
"++.++..++.+@%%%@@%%%@..++.+++++..+.++..++.+++++..+.++..++.+++++.",
"++.++....++@@%%%%%%%@....+++++..++.++....+++++..++.++....+++++..",
"++.....+++++@@%@@@@@@@.++++++..+++.....++++++..+++.....++++++..+",
"+...+..+.++@%@@@%%%%%@.+.++++..++...+..+.++++..++...+..+.++++..+",
"....+.++.++@%%%%%%%%%@++.++.........+.++.++.........+.++.++.....",
".....+++...@@%%%%%%%@@++.............+++.............+++........",
"....+++....+@%%%%%%@@@+....++.......+++....++.......+++....++...",
".+..+.....+@@%%%%%@@&@@...+......+..+.....+......+..+.....+.....",
"+........+@@%%%%%%@&&&@@.++....++........++....++........++....+",
"..........@%%%%%%%@&&&&@@.....++..............++..............++",
".........@@%%%%%%%@&&&&&@@......................................",
"......+..@%%%%%%%%@&&&&&&@@...........+...............+.........",
"....++...@%%%%%%%%@@@&&&&&@@..@@....++...+..........++...+......",
"++......@@%%%%%@@@%@@@&&&@@@@@*@++.........+...+++.........+...+",
"+.......@%%%%%%@%%%@&@@@@@$$@@@@+.......++..+..++.......++..+..+",
"+++..+.+@%%%%%%@%%%@@@=@@@@$$@@..++..+.++..++++..++..+.++..++++.",
"++.++..@%%%%%%@%%%%@*@@=@*@@@@+..+.++..++.+++++..+.++..++.+++++.",
"++.++.@@%%%%%%%%%%%@@@#@@@@@++..++.++....+++++..++.++....+++++..",
"++....@%%%%%%%%@%%%@-@@@@++++..+++.....++++++..+++.....++++++..+",
"+...+.@%%%%@%%%@%%%@-@@@@++++..++...+..+.++++..++...+..+.++++..+",
"....+.@%%%%@%%%@%%%@----@@+.........+.++.++.........+.++.++.....",
".....+@%%%@@%%@@%%%@-----@@..........+++.............+++........",
"....+@@%%%@%%@@%%%@@------@++.......+++....++.......+++....++...",
".+..+@%%%@@%%@%%%%@@@@@@--@......+..+.....+......+..+.....+.....",
"+....@%%%@%%%@%%%@@...@---@....++........++....++........++....+",
".....@@@@@@@@@@@@@....@--@@...++..............++..............++",
".......@@@..@@@@@@...@@-@@......................................",
"......+.....@@---@...@@@@.............+...............+.........",
"....++...+..@@@@@@..+@**@@..........++...+..........++...+......",
"++.........+@@***@@..@***@@+...+++.........+...+++.........+...+",
"+.......++..+@@***@..@@@@@@.+..++.......++..+..++.......++..+..+",
"+++..+.++..+++@@@@@@.+.++..++++..++..+.++..++++..++..+.++..++++.",
"++.++..++.+++++..+.++..++.+++++..+.++..++.+++++..+.++..++.+++++.",
"++.++....+++++..++.++....+++++..++.++....+++++..++.++....+++++..",
"++.....++++++..+++.....++++++..+++.....++++++..+++.....++++++..+",
"+...+..+.++++..++...+..+.++++..++...+..+.++++..++...+..+.++++..+",
"....+.++.++.........+.++.++.........+.++.++.........+.++.++.....",
".....+++.............+++.............+++.............+++........",
"....+++....++.......+++....++.......+++....++.......+++....++...",
".+..+.....+......+..+.....+......+..+.....+......+..+.....+.....",
"+........++....++........++....++........++....++........++....+",
"..............++..............++..............++..............++",
"................................................................",
"......+...............+...............+...............+........."};
