/* XPM */
static char * paccians0r_xpm[] = {
"64 64 11 1",
" 	c None",
".	c #25722C",
"+	c #154219",
"@	c #000000",
"#	c #B89EA2",
"$	c #FCA3B1",
"%	c #7F7812",
"&	c #7A7423",
"*	c #837E3C",
"=	c #55639A",
"-	c #FFFFFF",
"....++...+..........++...+..........++...+..........++...+......",
"++.........+...+++.........+...+++.........+...+++.........+...+",
"+.......++..+..++.......++..+..++.......++..+..++.......++..+..+",
"+++..+.++..++++..++..+.++..++++..++..+.++..++++..++..+.++..++++.",
"++.++..++.+++++..+.++..++.+++++..+.++..++.+++++..+.++..++.+++++.",
"++.++....+++++..++.++....+++++..++.++....+++++..++.++....+++++..",
"++.....++++++..+++.....++++++..+++.....++++++..+++.....++++++..+",
"+...+..+.++++..++...+..+.++++..++...+..+.++++..++...+..+.++++..+",
"....+.++.++.........+.++.+@..@@.....+.++.++.........+.++.++.....",
".....+++.............+++.@@@@#@@@@@@.+++.............+++........",
"....+++....++.......+++..@#########@@++....++.......+++....++...",
".+..+.....+......+..+....@@#########@@....+......+..+.....+.....",
"+........++....++........+@@@@@@@####@...++....++........++....+",
"..............++...........@$$$$@@##@@........++..............++",
".........................@@@$@$$$@##@...........................",
"......+...............+..@$$$$$@$@##@@+...............+.........",
"....++...+..........++...@@$$$$@@$@##@...+..........++...+......",
"++.........+...+++........@@$$$$$$@@@@.....+...+++.........+...+",
"+.......++..+..++.......++.@$$$$$$$@....++..+..++.......++..+..+",
"+++..+.++..++++..++..+.++.@@@$$@@@@@.+.++..++++..++..+.++..++++.",
"++.++..++.+++++..+.++..++.@%@@@@%%%@+..++.+++++..+.++..++.+++++.",
"++.++....+++++..++.++....+@%%%%%%%%@+....+++++..++.++....+++++..",
"++.....++++++..+++.....++@@@@@@@%%@@...++++++..+++.....++++++..+",
"+...+..+.++++..++...+..+.@%%%%%@@@%@+..+.++++..++...+..+.++++..+",
"....+.++.++.........+.++.@%%%%%%%%@@+.++.++.........+.++.++.....",
".....+++.............+++.@%%%%%%@%@@.+++.............+++........",
"....+++....++.......+++..@%%%%%%@@%@@++....++.......+++....++...",
".+..+.....+......+..+...@@@%%%%%%@@%@@....+......+..+.....+.....",
"+........++....++.......@&@@%%%%%%@%%@...++....++........++....+",
"..............++........@&&@@%%%%%@%%%@.......++..............++",
"........................@&&@@%%%%%%%%%@.........................",
"......+...............+@@&&@%%%%%%%%%%@@..............+.........",
"....++...+..........++.@&&&@%%%%%%%%%%%@.+..........++...+......",
"++.........+...+++....@@&&@@%%%%@@%%%%%@...+...+++.........+...+",
"+.......++..+..++.....@&&@@@@%%@@%%%%%%@++..+..++.......++..+..+",
"+++..+.++..++++..++..+@@&@&@@%@@%%%%%%%@@..++++..++..+.++..++++.",
"++.++..++.+++++..+.++..@&@&@%%%%%%%%%%%%@@+++++..+.++..++.+++++.",
"++.++....+++++..++.++...@@&@@%%%%%%%%%%%%@++++..++.++....+++++..",
"++.....++++++..+++.....@@@@$@%%%%%%%@%%%%@+++..+++.....++++++..+",
"+...+..+.++++..++...+..@@*@$@@%@%%%%@@%%%@+++..++...+..+.++++..+",
"....+.++.++.........+.++@@@@@@%@@%%%%@%%%@@.........+.++.++.....",
".....+++.............++@=@@==@%%@%%%%@%%%%@..........+++........",
"....+++....++.......++@@=@@==@@%%@%%%@%%%%@@+.......+++....++...",
".+..+.....+......+..+.@==@==@@@@%@@%%@@%%%%@.....+..+.....+.....",
"+........++....++.....@@=@==@=@@%%@%%%@%%%%@...++........++....+",
"..............++.......@@@==@==@%%@%%%@%@@@@..++..............++",
"........................@===@=@*@@@@@@@@@.......................",
"......+...............+.@==@@@@**@....+...............+.........",
"....++...+..........++..@@@@@.@*@...++...+..........++...+......",
"++.........+...+++.....@@***@@@@@+.........+...+++.........+...+",
"+.......++..+..++.....@@****@@.@@.......++..+..++.......++..+..+",
"+++..+.++..++++..++..+@@@@@@@++..++..+.++..++++..++..+.++..++++.",
"++.++..++.+++++..+.++..++.+++++..+.++..++.+++++..+.++..++.+++++.",
"++.++....+++++..++.++....+++++..++.++....+++++..++.++....+++++..",
"++.....++++++..+++.....++++++..+++.....++++++..+++.....++++++..+",
"+...+..+.++++..++...+..+.++++..++...+..+.++++..++...+..+.++++..+",
"....+.++.++.........+.++.++.........+.++.++.........+.++.++.....",
".....+++.............+++.............+++.............+++........",
"....+++....++.......+++....++.......+++....++.......+++....++...",
".+..+.....+......+..+.....+......+..+.....+......+..+.....+.....",
"+........++....++........++....++........++....++........++....+",
"..............++..............++..............++..............++",
"................................................................",
"......+...............+...............+...............+........."};
