/* XPM */
static char * wall_xpm[] = {
"64 64 16 1",
" 	c None",
".	c #154219",
"+	c #25722C",
"@	c #40713C",
"#	c #55864A",
"$	c #2F5538",
"%	c #669344",
"&	c #243D34",
"*	c #1C1E20",
"=	c #663F39",
"-	c #24161A",
";	c #381C24",
">	c #452A2F",
",	c #1A2731",
"'	c #17274D",
")	c #144038",
".+..++++.....++..+..++++.....++..+..++++.....++..+..++++.....++.",
".+.++.++.+...++..+.++.++.+...++..+.++.++.+...++..+.++.++.+...++.",
"+++++.+..+..+++++++++.+..+..+++++++++.+..+..+++++++++.+..+..++++",
"++++++...+++++.@++++++...+++++++++++++...+++++++++++++...+++++++",
"+++++...++++..@#$++++...++++.+@+$++++...++++.+@++++++...++++.+++",
".++.+.+++++..@%%#$+.+@+++++..@#@#$+.+@+++++..@#@+++.+.+++++.++++",
"++.+++++++..$#%%#%$.@#@.++..$#%##%$.@#@.++..$#%#@..+++++++..+++.",
"+++++++++++$#%%%%#%@#%%@...$##%%%#%@#%%@...$##%%#@++++++++++++..",
"++++++++++@##%%%%#%##%%%@..@#%%%%#%##%%%@..@#%%%%%@%@.++++++++++",
"+++++++.+++@#%%%#$#@#%%%%@@$#####$#@#%%%%@@$#####@$@%@.+++++++++",
"++.++++.+++$$@@@&$@##%%%%#@$&$$$&$@##%%%%#@$&$$$@@$@%%@+++++..++",
"+.++++++++@@###@@@@##%%%%@$@@@@#@@@##%%%%@$@@@@#@$@#%%#@++.+.+++",
".+++++++++$@###$@%%$$@$$$$$@####@%%$$@$$$$$@####@@@%%%%@++.+++..",
"+++++++..@$@@&$@#%%#$@$$@@$$@##@#%%#$@$$@@$$@##@#$@%%%%#.++.++..",
"..++.+...$$$&$@@%%%%#$$$@%$$$$$@%%%%#$$$@%$$$$$@#&@#%#@$@+....++",
".+..++..+%$&@#$#%%%%#@$@%%#&$$@#%%%%#@$@%%#&$$@##&$@@@@$#@....++",
".+......@@$###@##%%%#@$#%%%@&&@##%%%#@$#%%%@&&@#$$@@@%%#@$...++.",
".+.++..##$$@###@##%#@$@#%%%%$&$@##%#@$@#%%%%$&$@$&&$$$$$$@...++.",
"+++++..#@$&$$$$$$$$$$@##%%%%@$&$$$$$$@##%%%%@$&$$$$$@#####+.++++",
"++++++.@$%@$$@@$@$@@@$#%%%%%@$&&@$@@@$#%%%%%@$&&$$@@@#####$.++++",
"+++++..$@%%@@##@$@@@@&&$@@@$&$$$$@@@@&&$@@@$&$$$$$@@@@###@$..+++",
".++.+..$#%%#@#%%$$@@$$@$@##@$$@@$$@@$$@$@##@$$@@$*$$&&=$@@+.++++",
"++.++.$@%%%%@@%%@$*$&@#@$##@@$@@@$*$&@#@$##@@$@@$**$--;-&@..+++.",
"+++++.$@%%%%#$$$$$**$#%@@$$$$***$$**$#%@@$$$$******$$$@&@+++++..",
"+++++.&@#%#@$>=-****@%%%@@**$@******@%%%@@**$@*****$$@%$@+++++++",
"+++++@$&$@@$$&--***@#%%%%$*$##$****@#%%%%$*$##$*$*$$@%%%$+++++++",
"++.++&@#####@@$***$@#%%%%#$###@$**$@#%%%%#$###@$$$$@#%%%#$++..++",
"+.+++$@##%%##@**@$@##%%%%@#####@@$@##%%%%@#####@$$@@#%%%%#$+.+++",
".++++$@@#%%@@&$$$%#$@###@$@##@@@$%#$@###@$@##@@@@$$$#%%%#@$+++..",
"++++.@$,>>>,&$$@@%%#$$$$@@$*$$&$@%%#$$$$@@$*$$&$@@$$$$@@$$..++..",
"..++#@$--;-$$$@##%%%@@@@@#*$@@$@#%%%@@@@@#*$@@$@###@@@@##@$...++",
".+..##@$&&$$$@@%#%%%#@@@%%*$@@$@#%%%#@@@%%*$@@$@#%%#@@#%%%#$..++",
".+......@@$###@##%%%#@$#%%%@**@##%%%#@$#%%%@**@#$$@@@%%#@$...++.",
".+.++..##$$@###@##%#@$@#%%%%$*$@##%#@$@#%%%%$*$@$**$$$$$$@...++.",
"+++++..#@$&$$$$$$$$$$@##%%%%@$*$$$$$$@##%%%%@$*$$$$$@#####@.++++",
"++++++.@$%@$$@@$@$@@@$#%%%%%@$**@$@@@$#%%%%%@$**$$@@@#####$.++++",
"+++++..$@%%@@##@$@@@@&&$@@@$&$$$$@@@@&&$@@@$&$$$$$@@@@###@$..+++",
".++.+.+$#%%#@#%%$$@@$$@$@##@$$@@$$@@$$@$@##@$$@@$*$$&&=$@@#.++++",
"++.+++$@%%%%@@%%@$*$&@#@$##@@$@@@$*$&@#@$##@@$@@$**$--;-&@..+++.",
"++++++$@%%%%#$$$$$**$#%@@$$$$***$$**$#%@@$$$$******$$$@&@+++++..",
"++++++&@#%#@$>=-****@%%%@@**$@******@%%%@@**$@*****$$@%$@+++++++",
"+++++@$&$@@$$&--***@#%%%%$*$##$****@#%%%%$*$##$*$*$$@%%%$+++++++",
"++.++&@#####@@$***$@#%%%%#$###@$**$@#%%%%#$###@$$$$@#%%%#$++..++",
"+.+++$@##%%##@**@$@##%%%%@#####@@$@##%%%%@#####@$$@@#%%%%#$+.+++",
".++++$@@#%%@@&'''%#$@###@$@##@@@$%#$@###@$@##@@@@$$$#%%%#@$+++..",
"+++++)$,>>>,&''@@%%#$$$$@@$*$$*$@%%#$$$$@@$*$$&$@@$$$$@@$$..++..",
"..++))$--;-'''@##%%%@@@@@#*$@@$@#%%%@@@@@#*$@@$@###@@@@##@$...++",
".+..)))$&&'''@@%#%%%#@@@%%*$@@$@#%%%#@@@%%*$@@$@#%%#@@#%%%#$..++",
".+....)))'''&@##%%%%%@$@%%%@#%@#%%%%%@$@%%%@#%@#%%%%%@###@$..++.",
".+....+))''''&@@%%%%@$@#%%%##%$#%%%%@$@#%%%##%$#%%%%#$@@@@$..++.",
"++++...)))@'''&&$$$$&$#%%%%%@@$&$$$$&$#%%%%%@@$&$$@$$$>>@...++++",
"+++++...))@@'@@####@@$#%%%%%#@@@###@@$#%%%%%#@@@######&-@+++++++",
"+++++.....)@'@@#####@-$#%%#@$$@@####@-$#%%#@$$@@######$@.+++.+++",
".++.+.....))''@#####$$@$@$$@@$@@####$$@$@$$@@$@@###%#@@@.++.++++",
"++.+++++..)))'''@@@$&@@######@@$@@@$&@@######@@$@@@@$&.+++..+++.",
"++++++++...))&--;==>$@#######$--;==>$@#######$--;==$++++++++++..",
"++++++++...))),--;--$@@####@$&,--;--$@@####@$&,--;--++++++++++++",
"+++++++.+..)))))'''),$&&$$$--'))'''),$&&$$$--$))''')+++.++++++++",
"++.++++.+..)))))))))'--->>;--'))))))'--->>;--$)))))).++.++++..++",
"+.++++++++.)))))))))))&----)))))))))))&----&))))))+.++++++.+.+++",
".+++++++++.++..+..))))))))))))++++))))))))))..++.+++++++++.+++..",
"+++++++..++.++..+++)))))))))+++++++)))))))++++..+++++++..++.++..",
"..++.+..++....++..+.))))))....++..+.))))++....++..++.+..++....++",
"....++..+.....++.+..++..+.....++.+..++..+.....++.+..++..+.....++"};
